<svg width="16" height="16" viewBox="0 0 16 16" fill="none" xmlns="http://www.w3.org/2000/svg">
<g id="Circle-dash">
<rect width="16" height="16" fill="white" style="mix-blend-mode:multiply"/>
<g id="Vector">
<path d="M3.85009 2.35C3.27659 2.79009 2.77115 3.31238 2.35009 3.9L3.15009 4.5C3.51732 3.99072 3.95502 3.53618 4.45009 3.15L3.85009 2.35Z" fill="#161616"/>
<path d="M2.30009 6.15L1.35009 5.85C1.10858 6.54068 0.990112 7.26838 1.00009 8H2.00009C1.99806 7.37106 2.09942 6.74607 2.30009 6.15Z" fill="#161616"/>
<path d="M1.35009 10.2C1.58197 10.8972 1.91921 11.5548 2.35009 12.15L3.15009 11.55C2.78863 11.0439 2.50233 10.4881 2.30009 9.9L1.35009 10.2Z" fill="#161616"/>
<path d="M3.90009 13.65C4.49526 14.0809 5.15288 14.4181 5.85009 14.65L6.15009 13.7C5.56196 13.4978 5.0062 13.2115 4.50009 12.85L3.90009 13.65Z" fill="#161616"/>
<path d="M5.85009 1.35L6.15009 2.3C6.74616 2.09932 7.37116 1.99797 8.00009 2V1C7.26847 0.990021 6.54077 1.10848 5.85009 1.35Z" fill="#161616"/>
<path d="M12.1001 13.65C12.689 13.2111 13.2111 12.6889 13.6501 12.1L12.8501 11.5C12.4783 12.0219 12.022 12.4782 11.5001 12.85L12.1001 13.65Z" fill="#161616"/>
<path d="M13.7001 9.85L14.6501 10.15C14.8676 9.45343 14.9854 8.72959 15.0001 8H14.0001C14.0021 8.62894 13.9008 9.25394 13.7001 9.85Z" fill="#161616"/>
<path d="M14.6001 5.8C14.3682 5.10279 14.031 4.44517 13.6001 3.85L12.8001 4.45C13.1616 4.95611 13.4479 5.51187 13.6501 6.1L14.6001 5.8Z" fill="#161616"/>
<path d="M12.0501 2.3C11.4549 1.86912 10.7973 1.53188 10.1001 1.3L9.80009 2.25C10.3882 2.45224 10.944 2.73854 11.4501 3.1L12.0501 2.3Z" fill="#161616"/>
<path d="M10.1501 14.65L9.85009 13.7C9.25403 13.9007 8.62903 14.002 8.00009 14V15C8.72679 14.9567 9.44718 14.8394 10.1501 14.65Z" fill="#161616"/>
</g>
</g>
</svg>
