<svg width="16" height="16" viewBox="0 0 16 16" fill="none" xmlns="http://www.w3.org/2000/svg">
<g id="IBM-z--cloud-mod-stack">
<rect width="16" height="16"  fill="transparent" style="mix-blend-mode:multiply"/>
<g id="Vector">
<path d="M9.248 13.693L8 14.421L2.5 11.213V8.287L7.508 5.3655C7.654 5.4485 7.8205 5.5 8 5.5C8.552 5.5 9 5.052 9 4.5C9 3.948 8.552 3.5 8 3.5C7.448 3.5 7 3.948 7 4.5L7.0005 4.504L1.748 7.568C1.5945 7.6575 1.5 7.8225 1.5 8V11.5C1.5 11.6775 1.5945 11.8425 1.748 11.932L7.748 15.432C7.826 15.4775 7.913 15.5 8 15.5C8.087 15.5 8.174 15.4775 8.252 15.432L9.752 14.557L9.248 13.693Z" fill="white"/>
<path d="M14.252 4.068L12.752 3.193L12.248 4.057L13.5 4.787V11.213L11.2035 12.5525L5.999 9.506C5.9995 9.5035 6 9.502 6 9.5C6 8.948 5.552 8.5 5 8.5C4.448 8.5 4 8.948 4 9.5C4 10.052 4.448 10.5 5 10.5C5.179 10.5 5.345 10.449 5.4905 10.3665L10.9505 13.563C11.0285 13.6085 11.116 13.6315 11.203 13.6315C11.29 13.6315 11.377 13.609 11.455 13.5635L14.252 11.932C14.4055 11.8425 14.5 11.6775 14.5 11.5V4.5C14.5 4.3225 14.4055 4.1575 14.252 4.068Z" fill="white"/>
<path d="M11.5 8.6385V2.75C11.5 2.5725 11.4055 2.4075 11.252 2.318L8.252 0.568C8.174 0.5225 8.087 0.5 8 0.5C7.913 0.5 7.826 0.5225 7.748 0.568L1.748 4.068C1.5945 4.1575 1.5 4.3225 1.5 4.5V5.9995H2.5V4.787L8 1.5785L10.5 3.037V8.6385C10.2025 8.812 10 9.1305 10 9.5C10 10.052 10.448 10.5 11 10.5C11.552 10.5 12 10.052 12 9.5C12 9.131 11.7975 8.812 11.5 8.6385Z" fill="white"/>
</g>
</g>
</svg>
