<svg width="16" height="16" viewBox="0 0 16 16" fill="none" xmlns="http://www.w3.org/2000/svg">
<g id="Virtual-private-cloud--alt">
<rect width="16" height="16" fill="transparent" style="mix-blend-mode:multiply"/>
<g id="Vector">
<path d="M11.7071 11L5 4.29292V0.999967H1V4.99997H4.29295L11 11.707V15H15V11H11.7071ZM4 3.99997H2V1.99997H4V3.99997ZM14 14H12V12H14V14Z" fill="#F4F4F4"/>
<path d="M15 2.99997C15.001 2.51356 14.8244 2.04352 14.5033 1.67817C14.1822 1.31281 13.7387 1.07731 13.2562 1.0159C12.7737 0.954498 12.2854 1.07142 11.883 1.3447C11.4806 1.61798 11.1919 2.0288 11.071 2.49997H6.5V3.49997H11.071C11.1606 3.8437 11.3403 4.15733 11.5915 4.4085C11.8426 4.65968 12.1563 4.83933 12.5 4.92892V9.49997H13.5V4.92892C13.9282 4.81869 14.3078 4.56952 14.5792 4.22046C14.8507 3.87139 14.9987 3.44215 15 2.99997ZM13 3.99997C12.8022 3.99997 12.6089 3.94132 12.4444 3.83144C12.28 3.72155 12.1518 3.56538 12.0761 3.38265C12.0004 3.19992 11.9806 2.99886 12.0192 2.80488C12.0578 2.6109 12.153 2.43271 12.2929 2.29286C12.4327 2.15301 12.6109 2.05777 12.8049 2.01918C12.9989 1.9806 13.2 2.0004 13.3827 2.07609C13.5654 2.15177 13.7216 2.27995 13.8315 2.4444C13.9414 2.60885 14 2.80219 14 2.99997C13.9997 3.26509 13.8942 3.51927 13.7068 3.70674C13.5193 3.89421 13.2651 3.99966 13 3.99997Z" fill="#F4F4F4"/>
<path d="M9.5 12.5H4.92895C4.83936 12.1562 4.65971 11.8426 4.40854 11.5914C4.15736 11.3403 3.84374 11.1606 3.5 11.071V6.49997H2.5V11.071C2.15889 11.1585 1.847 11.3347 1.59599 11.5817C1.34498 11.8286 1.16379 12.1376 1.07082 12.4773C0.977844 12.817 0.976398 13.1752 1.06662 13.5156C1.15685 13.856 1.33554 14.1664 1.58455 14.4154C1.83355 14.6644 2.14401 14.8431 2.48441 14.9333C2.8248 15.0236 3.18301 15.0221 3.52266 14.9292C3.86232 14.8362 4.17132 14.655 4.41831 14.404C4.6653 14.153 4.84147 13.8411 4.92895 13.5H9.5V12.5ZM3 14C2.80222 14 2.60888 13.9413 2.44443 13.8314C2.27998 13.7216 2.15181 13.5654 2.07612 13.3827C2.00043 13.1999 1.98063 12.9989 2.01921 12.8049C2.0578 12.6109 2.15304 12.4327 2.29289 12.2929C2.43275 12.153 2.61093 12.0578 2.80491 12.0192C2.99889 11.9806 3.19996 12.0004 3.38268 12.0761C3.56541 12.1518 3.72159 12.2799 3.83147 12.4444C3.94135 12.6088 4 12.8022 4 13C3.9997 13.2651 3.89424 13.5193 3.70677 13.7067C3.5193 13.8942 3.26512 13.9997 3 14Z" fill="#F4F4F4"/>
</g>
</g>
</svg>
